<svg width="162" height="171" viewBox="0 0 162 171" fill="none" xmlns="http://www.w3.org/2000/svg">
<path d="M46.377 1L79.6543 58.4268L114.443 1H161.333V170H114.443V94.5244L79.6543 135.543L46.377 94.5244V170H1V1H46.377Z" fill="#F6EFD8"/>
<path d="M46.377 1L46.8096 0.749311L46.6651 0.5H46.377V1ZM79.6543 58.4268L79.2217 58.6774L79.6447 59.4075L80.0819 58.6858L79.6543 58.4268ZM114.443 1V0.5H114.162L114.016 0.740931L114.443 1ZM161.333 1H161.833V0.5H161.333V1ZM161.333 170V170.5H161.833V170H161.333ZM114.443 170H113.943V170.5H114.443V170ZM114.443 94.5244H114.943V93.1619L114.062 94.201L114.443 94.5244ZM79.6543 135.543L79.266 135.858L79.6457 136.326L80.0356 135.866L79.6543 135.543ZM46.377 94.5244L46.7652 94.2094L45.877 93.1145V94.5244H46.377ZM46.377 170V170.5H46.877V170H46.377ZM1 170H0.5V170.5H1V170ZM1 1V0.5H0.5V1H1ZM46.377 1L45.9443 1.25069L79.2217 58.6774L79.6543 58.4268L80.0869 58.1761L46.8096 0.749311L46.377 1ZM79.6543 58.4268L80.0819 58.6858L114.871 1.25907L114.443 1L114.016 0.740931L79.2266 58.1677L79.6543 58.4268ZM114.443 1V1.5H161.333V1V0.5H114.443V1ZM161.333 1H160.833V170H161.333H161.833V1H161.333ZM161.333 170V169.5H114.443V170V170.5H161.333V170ZM114.443 170H114.943V94.5244H114.443H113.943V170H114.443ZM114.443 94.5244L114.062 94.201L79.273 135.22L79.6543 135.543L80.0356 135.866L114.825 94.8478L114.443 94.5244ZM79.6543 135.543L80.0426 135.228L46.7652 94.2094L46.377 94.5244L45.9887 94.8394L79.266 135.858L79.6543 135.543ZM46.377 94.5244H45.877V170H46.377H46.877V94.5244H46.377ZM46.377 170V169.5H1V170V170.5H46.377V170ZM1 170H1.5V1H1H0.5V170H1ZM1 1V1.5H46.377V1V0.5H1V1Z" fill="black"/>
</svg>
